# xmcd
# 
# Track frame offsets:
#     150
#     27349
#     48755
#     69197
#     94823
#     134230
#     148984
#     166010
#     194939
#     220124
#     246269
# 
# Disc length: 3596
# 
# Revision: 1
# Processed by: cddbd v1.5.2PL0 Copyright (c) Steve Scherf et al.
# Submitted via: fre:ac v1.0.27
# 
DISCID=a80e0a0b
DTITLE=Matt Schofield - Heads, Tails and Aces
DYEAR=2009
DGENRE=Blues
TTITLE0=What I Wanna Hear
TTITLE1=Live Wire
TTITLE2=War We Wage
TTITLE3=Betting Man
TTITLE4=Lay it Down
TTITLE5=Can't Put You Down
TTITLE6=Woman Across the River
TTITLE7=Nothing Left
TTITLE8=I Told Ya
TTITLE9=Stranger Blues
TTITLE10=Not Raining Now
EXTD=
EXTT0=
EXTT1=
EXTT2=
EXTT3=
EXTT4=
EXTT5=
EXTT6=
EXTT7=
EXTT8=
EXTT9=
EXTT10=
PLAYORDER=
